<svg height="416pt" viewBox="0 -2 416.89419 416" width="416pt" xmlns="http://www.w3.org/2000/svg"><path d="m13.207031 321.03125h125.609375v-82.078125c0-23.859375-7.9375-47.035156-22.558594-65.886719l-49.542968-63.851562h-53.507813zm0 0" fill="#4ea3da"/><path d="m66.714844 109.21875 49.542968 63.851562c14.621094 18.847657 22.558594 42.027344 22.558594 65.886719v23.933594c0-23.859375-7.9375-47.039063-22.558594-65.886719l-49.542968-63.851562h-53.507813v-23.933594zm0 0" fill="#fff"/><path d="m58.746094 109.214844h-38.707032v-28.777344h38.707032zm0 0" fill="#ffcc34"/><path d="m20.039062 80.4375h38.707032v14.359375h-38.707032zm0 0" fill="#fff"/><path d="m21.316406 16.304688h89.417969v38.28125h-40.601563c-6.289062 0-11.382812 5.097656-11.382812 11.382812v14.46875h-38.710938v-20.382812c-14.851562-5.789063-19.800781-24.335938-9.808593-36.75l2.214843-2.753907c2.164063-2.6875 5.425782-4.246093 8.871094-4.246093zm0 0" fill="#4ea3da"/><path d="m12.445312 39.695312-2.214843 2.753907c-1.320313 1.640625-2.378907 3.386719-3.1875 5.195312-3.394531-7.683593-2.667969-17.066406 3.1875-24.339843l2.214843-2.753907c2.164063-2.6875 5.421876-4.246093 8.871094-4.246093h89.417969v19.144531h-89.417969c-3.445312 0-6.707031 1.5625-8.871094 4.246093zm0 0" fill="#fff"/><path d="m138.820312 54.585938h-28.082031v-38.28125h28.082031zm0 0" fill="#ffcc34"/><path d="m110.734375 16.304688h28.082031v19.144531h-28.082031zm0 0" fill="#fff"/><path d="m101.25 54.585938 18.496094 44.480468c2.394531 5.761719-1.839844 12.109375-8.082032 12.109375-3.449218 0-6.578124-2.027343-7.984374-5.175781l-23.015626-51.414062zm0 0" fill="#ffcc34"/><path d="m143.816406 59.585938v-48.28125h-122.5c-4.984375 0-9.636718 2.226562-12.765625 6.113281l-2.214843 2.75c-5.773438 7.171875-7.722657 16.390625-5.347657 25.285156 2.070313 7.757813 7.109375 14.082031 14.050781 17.796875v40.96875h-6.832031v221.8125h135.609375v-87.078125c0-24.839844-8.386718-49.324219-23.613281-68.949219l-51.039063-65.785156h-5.417968v-38.246094c0-3.523437 2.863281-6.386718 6.382812-6.386718h7.292969l21.691406 48.460937c2.210938 4.941406 7.136719 8.128906 12.550781 8.128906 4.605469 0 8.878907-2.285156 11.4375-6.117187 2.554688-3.832032 3.023438-8.660156 1.257813-12.910156l-15.617187-37.5625zm-79.550781 54.632812 48.039063 61.917969c13.875 17.875 21.511718 40.1875 21.511718 62.820312v77.078125h-115.609375v-201.816406zm-10.519531-10h-28.707032v-18.78125h28.710938v18.78125zm16.382812-54.632812c-9.03125 0-16.382812 7.347656-16.382812 16.382812v9.464844h-28.707032v-18.800782l-3.183593-1.242187c-5.578125-2.171875-9.660157-6.734375-11.203125-12.515625-1.542969-5.785156-.277344-11.777344 3.476562-16.441406l2.214844-2.75c1.214844-1.511719 3.03125-2.378906 4.972656-2.378906h84.421875v28.28125zm44.652344 54.917968c-.332031.503906-1.308594 1.671875-3.117188 1.671875-1.476562 0-2.820312-.871093-3.425781-2.21875l-19.863281-44.371093h9.539062l17.210938 41.398437c.695312 1.671875-.007812 3.019531-.34375 3.519531zm.953125-83.199218h18.082031v28.28125h-18.082031zm0 0" fill="#122436"/><path d="m172.832031 320.898438h125.347657c5.523437 0 10-4.476563 10-10v-197.925782c0-5.523437-4.476563-10-10-10h-125.347657c-5.523437 0-10 4.476563-10 10v197.925782c0 5.523437 4.476563 10 10 10zm0 0" fill="#4ea3da"/><path d="m291.898438 150.199219h-9.394532v-10h9.394532zm-20.675782 0h-9.402344v-10h9.402344zm-20.679687 0h-9.398438v-10h9.398438zm-20.675781 0h-9.398438v-10h9.398438zm-20.679688 0h-9.398438v-10h9.398438zm-20.679688 0h-9.398437v-10h9.398437zm0 0" fill="#fff"/><path d="m291.898438 295.167969h-9.394532v-10h9.394532zm-20.675782 0h-9.402344v-10h9.402344zm-20.679687 0h-9.398438v-10h9.398438zm-20.675781 0h-9.398438v-10h9.398438zm-20.679688 0h-9.398438v-10h9.398438zm-20.679688 0h-9.398437v-10h9.398437zm0 0" fill="#fff"/><path d="m172.832031 102.972656h125.347657c5.523437 0 10 4.476563 10 10v20c0-5.523437-4.476563-10-10-10h-125.347657c-5.523437 0-10 4.476563-10 10v-20c0-5.523437 4.476563-10 10-10zm0 0" fill="#fff"/><path d="m298.179688 325.898438h-125.347657c-8.273437 0-15-6.726563-15-15v-197.925782c0-8.273437 6.726563-15 15-15h125.347657c8.273437 0 15 6.726563 15 15v197.925782c0 8.273437-6.726563 15-15 15zm-125.347657-217.925782c-2.753906 0-5 2.246094-5 5v197.925782c0 2.757812 2.246094 5 5 5h125.347657c2.757812 0 5-2.242188 5-5v-197.925782c0-2.753906-2.242188-5-5-5zm0 0" fill="#122436"/><path d="m357.855469 246.359375-2.125-38.933594c-.246094-4.554687-4.140625-8.046875-8.695313-7.796875l-.230468.011719c-9.742188.527344-17.207032 8.855469-16.675782 18.597656l1.609375 29.539063-4.992187.628906-53.828125-53.824219c-5.105469-5.105469-13.386719-5.105469-18.492188 0-5.109375 5.105469-5.109375 13.386719 0 18.492188l53.824219 53.828125-65.503906-65.507813c-5.109375-5.105469-13.386719-5.105469-18.496094 0-5.105469 5.109375-5.105469 13.386719 0 18.496094l65.507812 65.503906-53.828124-53.824219c-5.105469-5.105468-13.386719-5.105468-18.492188 0-5.105469 5.105469-5.105469 13.386719 0 18.492188l53.824219 53.828125-42.144531-42.148437c-5.105469-5.105469-13.386719-5.105469-18.496094 0-5.105469 5.105468-5.105469 13.386718 0 18.496093l42.148437 42.144531 53.339844 53.339844 25.746094 4.96875 24.773437 24.777344 53.199219-53.199219-24.777344-24.773437-4.964843-25.746094-21.609376-54.3125zm0 0" fill="#ffcc34"/><path d="m340.886719 262.554688 4.992187-.628907-1.609375-29.542969c-.4375-8.054687 4.597657-15.128906 11.859375-17.640624l-.398437-7.316407c-.246094-4.550781-4.140625-8.042969-8.695313-7.796875l-.230468.011719c-9.738282.53125-17.207032 8.859375-16.675782 18.597656l1.609375 29.542969-4.992187.628906zm0 0" fill="#fff"/><path d="m224.765625 275.886719c5.109375-5.105469 13.386719-5.105469 18.496094 0l-11.679688-11.679688c-5.109375-5.105469-5.109375-13.386719 0-18.492187 5.105469-5.109375 13.382813-5.109375 18.492188 0l-11.679688-11.683594c-5.105469-5.105469-5.105469-13.382812 0-18.492188 5.105469-5.109374 13.386719-5.105468 18.492188 0l11.679687 11.679688c-5.105468-5.105469-5.105468-13.386719 0-18.492188 5.109375-5.109374 13.386719-5.109374 18.496094 0l-14.140625-14.144531c-5.109375-5.105469-13.386719-5.105469-18.496094 0-5.105469 5.105469-5.105469 13.386719 0 18.496094l-11.679687-11.679687c-5.105469-5.105469-13.386719-5.109376-18.492188 0-5.109375 5.105468-5.109375 13.382812 0 18.492187l11.679688 11.679687c-5.105469-5.105468-13.386719-5.105468-18.496094 0-5.105469 5.105469-5.105469 13.386719 0 18.496094l11.679688 11.679688c-5.105469-5.105469-13.386719-5.105469-18.492188 0-5.105469 5.105468-5.105469 13.386718 0 18.492187l14.140625 14.144531c-5.109375-5.109374-5.109375-13.386718 0-18.496093zm0 0" fill="#fff"/><g fill="#122436"><path d="m356.628906 412.539062-27.226562-27.226562-25.746094-4.96875-96.566406-96.570312c-3.414063-3.410157-5.296875-7.953126-5.296875-12.78125 0-4.828126 1.882812-9.367188 5.296875-12.78125 2.046875-2.050782 4.472656-3.503907 7.054687-4.363282l-.246093-.246094c-7.042969-7.046874-7.042969-18.515624 0-25.566406 2.019531-2.015625 4.425781-3.496094 7.050781-4.371094l-.234375-.238281c-7.050782-7.046875-7.050782-18.515625 0-25.5625 7.046875-7.046875 18.515625-7.046875 25.5625 0l.238281.238281c.875-2.625 2.355469-5.035156 4.371094-7.050781 7.046875-7.046875 18.519531-7.046875 25.566406 0l49.90625 49.910157-1.222656-22.445313c-.332031-6.042969 1.714843-11.855469 5.753906-16.363281 4.042969-4.503906 9.597656-7.167969 15.640625-7.5l.226562-.011719c3.558594-.207031 6.941407 1.003906 9.578126 3.367187 2.636718 2.363282 4.195312 5.613282 4.386718 9.152344l2.082032 37.785156.3125.648438 21.785156 54.75 4.765625 24.707031 27.226562 27.226563zm-48.070312-41.433593 25.746094 4.96875 22.324218 22.324219 46.128906-46.125-22.324218-22.324219-5.167969-26.789063-21.300781-53.539062-1.039063-1.800782-2.1875-40.125c-.097656-1.789062-1.582031-3.160156-3.433593-3.074218l-.222657.011718c-3.382812.183594-6.484375 1.671876-8.742187 4.191407-2.257813 2.515625-3.402344 5.765625-3.21875 9.140625l1.863281 34.195312-12.042969 1.515625-55.554687-55.558593c-3.152344-3.148438-8.277344-3.148438-11.425781 0-3.125 3.125-3.148438 8.199218-.066407 11.355468l53.894531 53.890625-7.070312 7.070313-53.828125-53.824219c-.035156-.035156-.066406-.066406-.101563-.101563l-11.578124-11.582031c-3.148438-3.148437-8.277344-3.148437-11.421876 0-3.148437 3.148438-3.148437 8.273438 0 11.421875l65.503907 65.507813-7.070313 7.070312-53.824218-53.828125c-1.527344-1.523437-3.554688-2.363281-5.710938-2.363281s-4.1875.839844-5.710938 2.363281c-3.148437 3.152344-3.148437 8.277344 0 11.421875l11.597657 11.597657c.027343.027343.054687.054687.082031.082031l42.148438 42.148437-7.070313 7.070313-42.203125-42.203125c-3.15625-3.089844-8.238281-3.074219-11.367188.054687-1.527343 1.527344-2.367187 3.554688-2.367187 5.710938 0 2.160156.839844 4.1875 2.367187 5.710937zm0 0"/><path d="m262.671875 30.445312h9.742187v10h-9.742187zm0 0"/><path d="m219.804688 30.445312h9.742187v10h-9.742187zm0 0"/><path d="m241.238281 30.445312h9.742188v10h-9.742188zm0 0"/><path d="m198.375 30.445312h9.742188v10h-9.742188zm0 0"/><path d="m348.402344 30.445312h-42.863282v.003907h-11.691406v-.003907h-9.742187v10h4.960937v.003907l59.335938-.003907v62.292969h10v-72.292969zm0 0"/><path d="m348.402344 114.066406h10v9.4375h-10zm0 0"/><path d="m348.402344 134.832031h10v9.4375h-10zm0 0"/><path d="m348.402344 160.996094v41.128906h10v-46.53125h-10zm0 0"/><path d="m176.941406 30.445312h-38.125v10h47.867188v-10zm0 0"/></g><path d="m372.195312 26.074219c-6.207031 0-11.25-5.046875-11.25-11.25 0-5.175781-4.199218-9.375-9.378906-9.375-5.175781 0-9.375 4.199219-9.375 9.375 0 6.203125-5.046875 11.25-11.25 11.25-5.175781 0-9.375 4.199219-9.375 9.375 0 5.179687 4.199219 9.378906 9.375 9.378906 6.203125 0 11.25 5.046875 11.25 11.25 0 5.175781 4.199219 9.375 9.375 9.375 5.179688 0 9.378906-4.199219 9.378906-9.375 0-6.203125 5.042969-11.25 11.25-11.25 5.175782 0 9.375-4.199219 9.375-9.378906-.003906-5.175781-4.199218-9.375-9.375-9.375zm0 0" fill="#ffcc34"/><path d="m351.566406 70.449219c-7.925781 0-14.375-6.445313-14.375-14.375 0-3.445313-2.804687-6.25-6.25-6.25-7.925781 0-14.375-6.445313-14.375-14.375 0-7.929688 6.449219-14.375 14.375-14.375 3.445313 0 6.25-2.804688 6.25-6.25 0-7.925781 6.449219-14.378907 14.375-14.378907 7.929688 0 14.378906 6.449219 14.378906 14.378907 0 3.445312 2.804688 6.25 6.25 6.25 7.925782 0 14.375 6.445312 14.375 14.375 0 7.929687-6.449218 14.375-14.375 14.375-3.445312 0-6.25 2.804687-6.25 6.25 0 7.925781-6.449218 14.375-14.378906 14.375zm0-60c-2.410156 0-4.375 1.964843-4.375 4.378906 0 8.957031-7.289062 16.25-16.25 16.25-2.410156 0-4.375 1.960937-4.375 4.375 0 2.410156 1.960938 4.375 4.375 4.375 8.960938 0 16.25 7.289063 16.25 16.25 0 2.414063 1.960938 4.378906 4.375 4.378906 2.414063 0 4.378906-1.964843 4.378906-4.378906 0-8.960937 7.289063-16.25 16.25-16.25 2.410157 0 4.375-1.960937 4.375-4.375 0-2.410156-1.960937-4.375-4.375-4.375-8.960937 0-16.25-7.292969-16.25-16.25 0-2.414063-1.964843-4.378906-4.378906-4.378906zm0 0" fill="#122436"/></svg>